Coordinates
version=1
nRows=31
nColumns=34
inDegrees=no

Units are S.I. units (second, meters, Newtons, ...)
If the header above contains a line with 'inDegrees', this indicates whether rotational values are in degrees (yes) or radians (no).

endheader
time	pelvis_tilt	pelvis_list	pelvis_rotation	pelvis_tx	pelvis_ty	pelvis_tz	hip_flexion_r	hip_adduction_r	hip_rotation_r	knee_angle_r	ankle_angle_r	subtalar_angle_r	mtp_angle_r	hip_flexion_l	hip_adduction_l	hip_rotation_l	knee_angle_l	ankle_angle_l	subtalar_angle_l	mtp_angle_l	lumbar_extension	lumbar_bending	lumbar_rotation	arm_flex_r	arm_add_r	arm_rot_r	elbow_flex_r	pro_sup_r	arm_flex_l	arm_add_l	arm_rot_l	elbow_flex_l	pro_sup_l
3.01	-0.060591	0.0083695	0.0126062	-0.190394	1.25246	-0.583904	0.193739	-0.132222	-0.292812	0.354156	-0.60948	0.0239156	-0.0912655	0.197238	-0.0860861	-0.209499	0.284931	-0.585574	0.155393	-0.0912419	-0.228649	-0.0045263	-0.0231226	0.404482	-0.372934	-0.0533382	2.57761	1.74416	0.554504	-0.369984	0.287812	2.53913	1.70008
3.02	-0.0678651	0.00750829	0.0148774	-0.192563	1.25875	-0.584866	0.196924	-0.129959	-0.304262	0.321791	-0.599346	0.030443	-0.0912655	0.206468	-0.0825002	-0.200622	0.270435	-0.566527	0.160825	-0.0912418	-0.231239	0.00201751	-0.0234985	0.399971	-0.350088	-0.0462824	2.57217	1.75664	0.531567	-0.364816	0.276553	2.53353	1.70457
3.03	-0.0779004	0.00767766	0.0146116	-0.194613	1.26379	-0.585645	0.203109	-0.128959	-0.320072	0.287961	-0.58964	0.0437573	-0.0912655	0.216449	-0.079026	-0.205468	0.251854	-0.547965	0.168017	-0.0912418	-0.229873	0.0067418	-0.0201681	0.396256	-0.331035	-0.0381669	2.56769	1.77499	0.510206	-0.359782	0.268555	2.52666	1.70758
3.04	-0.0898315	0.00904686	0.0119773	-0.196605	1.26763	-0.586218	0.212679	-0.129399	-0.336752	0.256376	-0.580892	0.0626769	-0.0912655	0.227037	-0.0757395	-0.222149	0.231373	-0.531241	0.176958	-0.0912418	-0.225763	0.00930572	-0.0134994	0.393795	-0.315702	-0.0293448	2.56438	1.79714	0.491296	-0.355261	0.263887	2.51902	1.70951
3.05	-0.102866	0.0116353	0.00744937	-0.198604	1.27033	-0.586587	0.225666	-0.131289	-0.351367	0.22974	-0.573462	0.0851298	-0.0912655	0.23817	-0.0726339	-0.24777	0.210833	-0.517254	0.187516	-0.0912417	-0.220066	0.00965055	-0.00425082	0.393172	-0.303842	-0.0200642	2.56233	1.82119	0.475402	-0.351638	0.262327	2.5112	1.71069
3.06	-0.116319	0.0153057	0.00172313	-0.200662	1.27195	-0.586782	0.241719	-0.134507	-0.361929	0.209585	-0.567564	0.108452	-0.0912655	0.249812	-0.0696579	-0.278767	0.191616	-0.506228	0.199388	-0.0912417	-0.213791	0.00799574	0.00656656	0.394955	-0.295108	-0.0105129	2.56152	1.84563	0.462761	-0.349225	0.263433	2.50381	1.7113
3.07	-0.129605	0.0197912	-0.00441226	-0.202815	1.27256	-0.586858	0.260132	-0.13886	-0.367627	0.196363	-0.563284	0.129824	-0.0912655	0.261867	-0.0667491	-0.311374	0.174612	-0.497696	0.212132	-0.0912417	-0.207775	0.00477886	0.017846	0.399611	-0.289097	-0.000811467	2.56179	1.86923	0.453311	-0.348205	0.266602	2.49734	1.71137
3.08	-0.142206	0.0247606	-0.0102202	-0.205069	1.2722	-0.586884	0.279928	-0.144159	-0.368805	0.189706	-0.560561	0.146806	-0.0912656	0.27409	-0.0638571	-0.342167	0.160267	-0.490703	0.225276	-0.0912416	-0.202699	0.000551751	0.0285509	0.407446	-0.285401	0.00899122	2.56291	1.89098	0.446734	-0.348615	0.271127	2.49211	1.71091
3.09	-0.153666	0.0298841	-0.0151227	-0.207405	1.27092	-0.586927	0.299995	-0.150262	-0.366697	0.18873	-0.559176	0.157795	-0.0912656	0.286089	-0.0609726	-0.368551	0.148709	-0.484141	0.238395	-0.0912416	-0.199089	-0.00411607	0.0378453	0.418568	-0.283641	0.0189231	2.56458	1.90992	0.442545	-0.350343	0.276285	2.48822	1.70991
3.1	-0.163604	0.0348757	-0.0187583	-0.209782	1.26876	-0.587041	0.31925	-0.157058	-0.36296	0.192294	-0.558788	0.162269	-0.0912656	0.297404	-0.058157	-0.389055	0.139896	-0.477098	0.251171	-0.0912416	-0.197293	-0.0087127	0.0451775	0.432865	-0.283487	0.0290741	2.56647	1.92511	0.44017	-0.353166	0.281426	2.48557	1.70845
3.11	-0.17176	0.039509	-0.020987	-0.21215	1.26575	-0.587259	0.336772	-0.164423	-0.359139	0.199176	-0.559005	0.160741	-0.0912656	0.307618	-0.0555563	-0.40338	0.133748	-0.469092	0.263384	-0.0912415	-0.197465	-0.0128268	0.0503054	0.449997	-0.284668	0.0395597	2.56827	1.93597	0.439019	-0.356784	0.286064	2.48388	1.70662
3.12	-0.178054	0.0436013	-0.0218383	-0.214457	1.26188	-0.58759	0.351924	-0.172167	-0.356272	0.208188	-0.559462	0.154491	-0.0912656	0.316478	-0.0533872	-0.412114	0.130213	-0.460147	0.274812	-0.0912415	-0.199529	-0.016152	0.0532558	0.469423	-0.28696	0.050485	2.56973	1.94229	0.438554	-0.360869	0.289916	2.48274	1.70457
3.13	-0.182585	0.0470179	-0.0214555	-0.216662	1.25717	-0.588028	0.364393	-0.180034	-0.3547	0.218275	-0.559857	0.145197	-0.0912656	0.323921	-0.0518663	-0.416314	0.129237	-0.450696	0.285093	-0.0912415	-0.203209	-0.0185001	0.0542545	0.49044	-0.290174	0.0619116	2.57067	1.94428	0.438323	-0.365107	0.292898	2.4817	1.70249
3.14	-0.185591	0.0496974	-0.0200386	-0.218734	1.25159	-0.588553	0.374184	-0.187746	-0.354108	0.228582	-0.559962	0.134574	-0.0912656	0.330051	-0.0511302	-0.417091	0.130715	-0.441393	0.293632	-0.0912414	-0.208078	-0.0198077	0.0536423	0.512249	-0.294135	0.0738309	2.57099	1.94252	0.437979	-0.369222	0.295082	2.48033	1.70066
3.15	-0.187393	0.0516633	-0.0177987	-0.220653	1.24511	-0.589141	0.381553	-0.195052	-0.353715	0.238489	-0.559635	0.124059	-0.0912656	0.335075	-0.051187	-0.41534	0.134458	-0.4329	0.299609	-0.0912414	-0.213646	-0.0201319	0.0517938	0.534039	-0.298664	0.0861579	2.57069	1.93786	0.437275	-0.372996	0.296634	2.47825	1.69945
3.16	-0.188341	0.0530101	-0.0149315	-0.222411	1.23771	-0.58977	0.386914	-0.201764	-0.352531	0.247601	-0.558845	0.114616	-0.0912657	0.339248	-0.0519239	-0.411668	0.140216	-0.425732	0.302111	-0.0912414	-0.219446	-0.0196254	0.0490573	0.555063	-0.303573	0.0987475	2.56984	1.93132	0.43606	-0.376277	0.297752	2.47519	1.69921
3.17	-0.18876	0.0538722	-0.0116091	-0.224016	1.22936	-0.590418	0.390738	-0.207764	-0.349608	0.255704	-0.55769	0.106686	-0.0912657	0.342837	-0.0531669	-0.406494	0.147728	-0.420201	0.300363	-0.0912414	-0.225102	-0.0184911	0.0457212	0.574703	-0.308658	0.111428	2.56854	1.92393	0.434259	-0.378976	0.298622	2.47103	1.70007
3.18	-0.188908	0.0543909	-0.00798124	-0.225482	1.22003	-0.59107	0.393476	-0.213	-0.344242	0.262715	-0.5564	0.100246	-0.0912657	0.346092	-0.0547483	-0.400189	0.156763	-0.416471	0.293939	-0.0912413	-0.230375	-0.0169362	0.0420023	0.592525	-0.313714	0.124034	2.56692	1.91658	0.431869	-0.381059	0.29938	2.46577	1.70184
3.19	-0.188966	0.0546942	-0.00417857	-0.226834	1.20973	-0.591713	0.395518	-0.217479	-0.33609	0.268657	-0.5553	0.0949334	-0.0912657	0.349226	-0.0565476	-0.393168	0.167138	-0.414662	0.282899	-0.0912413	-0.235176	-0.015146	0.0380508	0.608285	-0.318564	0.136419	2.56508	1.91009	0.428945	-0.382535	0.30009	2.45953	1.70399
3.2	-0.189041	0.0548937	-0.000315461	-0.228106	1.19845	-0.592336	0.39719	-0.221271	-0.325215	0.27366	-0.554754	0.0901932	-0.0912657	0.352409	-0.0584961	-0.385902	0.178704	-0.414936	0.267828	-0.0912413	-0.239551	-0.0132823	0.0339746	0.621905	-0.323084	0.148448	2.5631	1.90509	0.425596	-0.383438	0.300749	2.4525	1.70586
3.21	-0.189195	0.0550951	0.00350812	-0.229335	1.18619	-0.59293	0.398786	-0.224518	-0.31204	0.277986	-0.555041	0.0854051	-0.0912657	0.355781	-0.0605437	-0.37883	0.191322	-0.417495	0.24976	-0.0912412	-0.243636	-0.0115054	0.0298719	0.633403	-0.327225	0.15996	2.56106	1.90191	0.421991	-0.38381	0.301319	2.44486	1.70686
3.22	-0.189442	0.0554067	0.00720504	-0.230558	1.17296	-0.593484	0.40062	-0.227429	-0.297242	0.282082	-0.556183	0.0799846	-0.0912657	0.359457	-0.062621	-0.372239	0.204869	-0.422455	0.230045	-0.0912412	-0.247607	-0.00999667	0.0258574	0.64283	-0.331019	0.170736	2.55907	1.90055	0.418354	-0.383693	0.301769	2.43677	1.70659
3.23	-0.189788	0.0559744	0.0106962	-0.231813	1.15875	-0.593993	0.403045	-0.230245	-0.281574	0.286613	-0.557724	0.0734411	-0.0912657	0.363553	-0.0646246	-0.366156	0.219267	-0.429577	0.210176	-0.0912412	-0.251651	-0.00894652	0.0220649	0.65023	-0.334563	0.180492	2.55723	1.90071	0.414941	-0.383144	0.302085	2.42828	1.70487
3.24	-0.190293	0.0569357	0.0139068	-0.233142	1.14358	-0.594447	0.406477	-0.233183	-0.265669	0.292477	-0.558495	0.0654124	-0.0912658	0.368204	-0.0664196	-0.360298	0.234575	-0.437911	0.191604	-0.0912411	-0.255963	-0.00855386	0.0186327	0.65563	-0.337986	0.188904	2.55563	1.90195	0.412006	-0.382251	0.302253	2.41941	1.70166
3.25	-0.191055	0.058394	0.0167624	-0.234589	1.12743	-0.594835	0.411409	-0.236378	-0.249879	0.300783	-0.556434	0.0556938	-0.0912658	0.373629	-0.0678683	-0.354092	0.25109	-0.445451	0.175547	-0.0912411	-0.260705	-0.0089981	0.0156829	0.659042	-0.341425	0.195638	2.55427	1.90382	0.409756	-0.381153	0.302222	2.41009	1.6971
3.26	-0.192224	0.0603958	0.0191892	-0.236196	1.11032	-0.595145	0.418429	-0.239829	-0.234197	0.312816	-0.548522	0.044253	-0.0912658	0.380179	-0.0688663	-0.346771	0.269426	-0.448913	0.162824	-0.0912411	-0.265983	-0.0104066	0.0133071	0.660468	-0.344996	0.200371	2.55309	1.90594	0.408323	-0.380035	0.301874	2.40022	1.69146
3.27	-0.194018	0.0629111	0.0211202	-0.238014	1.09223	-0.595362	0.428225	-0.243387	-0.218297	0.329965	-0.530952	0.0312006	-0.0912658	0.388385	-0.0693662	-0.33749	0.290537	-0.443813	0.153736	-0.091241	-0.271831	-0.0128258	0.0115573	0.659908	-0.348794	0.202801	2.55189	1.90811	0.407747	-0.3791	0.301011	2.38962	1.68504
3.28	-0.196737	0.0658233	0.0225102	-0.240094	1.07314	-0.595472	0.441596	-0.246773	-0.201668	0.353621	-0.499561	0.0167289	-0.0912658	0.398988	-0.0693877	-0.32546	0.31565	-0.424931	0.148021	-0.091241	-0.278194	-0.0161982	0.0104358	0.65737	-0.352895	0.202662	2.55037	1.91035	0.407985	-0.378532	0.299342	2.37803	1.67813
3.29	-0.200761	0.0689331	0.0233519	-0.242496	1.05303	-0.59547	0.459443	-0.249636	-0.18382	0.38504	-0.450574	0.00104505	-0.0912658	0.41294	-0.0690139	-0.310092	0.346114	-0.387226	0.144894	-0.091241	-0.284933	-0.0203507	0.00988404	0.652881	-0.357355	0.199746	2.54808	1.91285	0.40892	-0.378451	0.296468	2.36512	1.6711
3.3	-0.206534	0.0719738	0.0236888	-0.245292	1.03188	-0.595362	0.482738	-0.251632	-0.164499	0.425149	-0.381593	-0.015673	-0.0912658	0.431382	-0.0683807	-0.291106	0.383176	-0.327101	0.143159	-0.0912409	-0.291847	-0.0249948	0.00977687	0.646508	-0.362219	0.193922	2.54446	1.91597	0.410377	-0.378885	0.291895	2.3504	1.66437
3.31	-0.214519	0.0746348	0.0236175	-0.248594	1.00968	-0.595161	0.512461	-0.252492	-0.143833	0.474351	-0.292656	-0.0332744	-0.0912658	0.455574	-0.0676628	-0.26861	0.427731	-0.243776	0.141361	-0.0912409	-0.298716	-0.0297419	0.00992686	0.63836	-0.367518	0.185155	2.53884	1.92015	0.41214	-0.379757	0.285058	2.33328	1.6583
